<svg xmlns="http://www.w3.org/2000/svg" xmlns:xlink="http://www.w3.org/1999/xlink" width="1920" height="1080" viewBox="0 0 1920 1080"><defs><clipPath id="a"><rect width="101" height="99" rx="49.5" stroke-width="5" fill="none" stroke="#707070" stroke-linecap="round" transform="translate(433 529)"/></clipPath><clipPath id="b"><rect width="114" height="111" rx="55.5" transform="translate(719 311.533)" stroke-width="5" stroke="#fff" stroke-linecap="round" stroke-linejoin="round" fill="none"/></clipPath><clipPath id="c"><rect width="113.865" height="110.16" stroke-width="5" stroke="#fff" stroke-linecap="round" stroke-linejoin="round" fill="none"/></clipPath><clipPath id="d"><rect width="113.865" height="67.121" stroke-width="5" stroke="#fff" stroke-linecap="round" stroke-linejoin="round" fill="none"/></clipPath><clipPath id="e"><rect width="118" height="122" rx="59" transform="translate(1030 335)" stroke-width="5" stroke="#fff" stroke-linecap="round" stroke-linejoin="round" fill="none"/></clipPath><clipPath id="f"><rect width="118.424" height="72.642" stroke-width="5" stroke="#fff" stroke-linecap="round" stroke-linejoin="round" fill="none"/></clipPath><clipPath id="g"><rect width="105" height="96.979" transform="translate(524 540)" stroke-width="5" stroke="#fff" stroke-linecap="round" stroke-linejoin="round" fill="none"/></clipPath><clipPath id="h"><rect width="105" height="89.673" stroke-width="5" stroke="#fff" stroke-linecap="round" stroke-linejoin="round" fill="none"/></clipPath><clipPath id="i"><rect width="114" height="102" fill="none" stroke="#fff" stroke-linecap="round" stroke-width="5"/></clipPath><clipPath id="j"><rect width="113" height="101" stroke-width="5" fill="none" stroke="#fff" stroke-linecap="round" transform="translate(-0.088)"/></clipPath><clipPath id="k"><rect width="125" height="102" stroke-width="5" fill="none" stroke="#fff" stroke-linecap="round" transform="translate(1313 520)"/></clipPath><clipPath id="l"><rect width="54.142" height="102.731" fill="none" stroke="#fff" stroke-linecap="round" stroke-width="5"/></clipPath><clipPath id="m"><rect width="125" height="123" transform="translate(545 714)" stroke-width="5" stroke="#fff" stroke-linecap="round" stroke-linejoin="round" fill="none"/></clipPath><clipPath id="n"><rect width="125" height="123" stroke-width="5" fill="none" stroke="#fff" stroke-linecap="round" transform="translate(805 710)"/></clipPath><clipPath id="o"><rect width="125" height="121" stroke-width="5" fill="none" stroke="#fff" stroke-linecap="round" transform="translate(1065 712)"/></clipPath><clipPath id="p"><rect width="101" height="111" stroke-width="5" fill="none" stroke="#fff" stroke-linecap="round" transform="translate(1325 714)"/></clipPath><clipPath id="q"><rect width="129" height="125" stroke-width="5" fill="none" stroke="#fff" stroke-linecap="round" transform="translate(550 875)"/></clipPath><clipPath id="r"><rect width="129" height="125" stroke-width="5" fill="none" stroke="#fff" stroke-linecap="round" transform="translate(801 875)"/></clipPath><clipPath id="s"><rect width="129" height="125" stroke-width="5" fill="none" stroke="#fff" stroke-linecap="round" transform="translate(1063 875)"/></clipPath><clipPath id="u"><rect width="1920" height="1080"/></clipPath></defs><g id="t" clip-path="url(#u)"><rect width="1920" height="1080"/><line x2="1818" transform="translate(29.5 118.5)" fill="none" stroke="#707070" stroke-width="1"/><text transform="translate(1724 44)" fill="snow" font-size="36" font-family="SegoeUI-Semibold, Segoe UI" font-weight="600" letter-spacing="0.003em"><tspan x="0" y="39">Relax</tspan></text><text transform="translate(1453 44)" fill="snow" font-size="36" font-family="SegoeUI-Semibold, Segoe UI" font-weight="600" letter-spacing="0.003em"><tspan x="0" y="39">Meditation</tspan></text><text transform="translate(1164 44)" fill="snow" font-size="36" font-family="SegoeUI-Semibold, Segoe UI" font-weight="600" letter-spacing="0.003em"><tspan x="0" y="39">Productivity</tspan></text><text transform="translate(45 19)" fill="#fff" font-size="63" font-family="Roboto-Bold, Roboto" font-weight="700"><tspan x="0" y="66">Cool</tspan></text><text transform="translate(176 19)" fill="#006dff" font-size="63" font-family="Roboto-Bold, Roboto" font-weight="700"><tspan x="0" y="66">Head</tspan></text><rect width="856" height="827" transform="translate(975 253)" fill="rgba(8,9,10,0.81)"/><rect width="874" height="827" transform="translate(78 253)" fill="rgba(8,9,10,0.81)"/><ellipse cx="206.5" cy="197.5" rx="206.5" ry="197.5" transform="translate(764 301)" fill="#006dff"/><ellipse cx="196.5" cy="188.5" rx="196.5" ry="188.5" transform="translate(774 310)"/><text transform="translate(887 458)" fill="#006dff" font-size="63" font-family="Roboto-Regular, Roboto"><tspan x="0" y="66">25:00</tspan></text><text transform="translate(918 540)" fill="#8b8989" font-size="24" font-family="Roboto-Regular, Roboto"><tspan x="0" y="25">RUNNING</tspan></text><rect width="226" height="54" rx="27" transform="translate(862 716)" fill="#006dff"/><text transform="translate(952 752)" fill="#fff" font-size="24" font-family="Roboto-Bold, Roboto" font-weight="700"><tspan x="0" y="0">Play</tspan></text><g transform="translate(791 -158)" clip-path="url(#a)" style="isolation:isolate"><g transform="translate(439.189 531.549)"><g transform="translate(0 0)"><path d="M80.874,61.739H2.97" transform="translate(-2.97 -22.816)" fill="none" stroke="#fff" stroke-linecap="round" stroke-miterlimit="10" stroke-width="5"/><path d="M2.97,61.739c0,73.877,77.9,73.44,77.9,0" transform="translate(-2.97 -22.816)" fill="none" stroke="#fff" stroke-linecap="round" stroke-miterlimit="10" stroke-width="5"/><path d="M115.71,82c20.109.223,12.279,24.327-7.366,24.327" transform="translate(-38.554 -29.658)" fill="none" stroke="#fff" stroke-linecap="round" stroke-miterlimit="10" stroke-width="5"/><path d="M54.788,2.97l-2.57,6.557a6.557,6.557,0,0,0,2.942,8.122h0a6.557,6.557,0,0,1,2.951,8.109l-2.216,5.713" transform="translate(-19.449 -2.97)" fill="none" stroke="#fff" stroke-linecap="round" stroke-miterlimit="10" stroke-width="5"/><path d="M28.06,12.422,24.948,18.1c-1.451,2.667.074,5.683,3.567,7.064h0c3.5,1.377,5.018,4.371,3.576,7.051L29.4,37.2" transform="translate(-10.207 -6.162)" fill="none" stroke="#fff" stroke-linecap="round" stroke-miterlimit="10" stroke-width="5"/><path d="M82.174,12.422,79.057,18.1c-1.451,2.667.074,5.683,3.567,7.064h0c3.5,1.377,5.018,4.371,3.576,7.051l-2.688,4.966" transform="translate(-28.48 -6.162)" fill="none" stroke="#fff" stroke-linecap="round" stroke-miterlimit="10" stroke-width="5"/></g></g></g><g transform="translate(-302 41.467)" clip-path="url(#b)" style="isolation:isolate"><g transform="translate(719 312.162)"><g clip-path="url(#c)"><g transform="translate(0.002)" clip-path="url(#d)"><g transform="translate(-1.119 -1.046)" fill="none" stroke-linecap="round" stroke-linejoin="round" stroke-miterlimit="10"><path d="M91.953,23.082a24.193,24.193,0,0,0-47-1.7A13.049,13.049,0,0,0,30.326,17.87a13.665,13.665,0,0,0-8.481,12.739,9.8,9.8,0,0,0,.062,1.352,16.179,16.179,0,0,0-15.3,7.168A17.2,17.2,0,0,0,5.548,56.379a16.308,16.308,0,0,0,14.305,9.085h71.9c11.387.06,20.663-9.381,20.72-21.086s-9.128-21.241-20.515-21.3Z" stroke="none"/><path d="M 68.22084045410156 8.711750030517578 C 66.15234375 8.711750030517578 64.11100769042969 9.051673889160156 62.15353012084961 9.722064971923828 C 60.23273849487305 10.3798828125 58.42902755737305 11.34230422973633 56.79250335693359 12.58261871337891 C 55.14713287353516 13.82962036132813 53.7099494934082 15.32783126831055 52.52087020874023 17.03561782836914 C 51.29750061035156 18.79267120361328 50.36142730712891 20.73798751831055 49.73863220214844 22.81756591796875 C 49.21879577636719 24.55348968505859 47.80036926269531 25.87227630615234 46.03124237060547 26.26456832885742 C 45.67145538330078 26.34434509277344 45.30864715576172 26.38326644897461 44.94874572753906 26.38326644897461 C 43.5389404296875 26.38326644897461 42.17414093017578 25.78599548339844 41.21426391601563 24.70777893066406 C 39.64955902099609 22.95014572143555 37.43455505371094 21.94209289550781 35.13718414306641 21.94209289550781 C 34.12458038330078 21.94209289550781 33.12963104248047 22.13435745239258 32.18000030517578 22.51356506347656 C 30.61695098876953 23.13769912719727 29.28560638427734 24.2263298034668 28.32989501953125 25.66175079345703 C 27.35816192626953 27.12125015258789 26.84447479248047 28.83203887939453 26.84434509277344 30.60882949829102 C 26.84434509277344 30.84322357177734 26.84434509277344 31.16427612304688 26.85868835449219 31.27217102050781 C 27.07163238525391 32.80475234985352 26.56305694580078 34.34959411621094 25.48131561279297 35.45593643188477 C 24.53517150878906 36.42358016967773 23.24390411376953 36.96039581298828 21.90663909912109 36.96039581298828 C 21.71495819091797 36.96039581298828 21.52226257324219 36.94936370849609 21.32958221435547 36.92698669433594 C 20.9114990234375 36.87843322753906 20.48697662353516 36.85382843017578 20.06776428222656 36.85382843017578 C 16.36055755615234 36.85382843017578 12.88071441650391 38.74451446533203 10.75923919677734 41.91140747070313 C 9.57305908203125 43.68209075927734 8.8763427734375 45.75617218017578 8.744400024414063 47.90940856933594 C 8.612236022949219 50.06575012207031 9.051528930664063 52.21764373779297 10.01473999023438 54.13246154785156 C 11.94605255126953 57.97182846069336 15.72806549072266 60.39585876464844 19.89029693603516 60.46469879150391 L 91.74845123291016 60.46469879150391 C 91.75695037841797 60.46469879150391 91.76544952392578 60.46472549438477 91.77394866943359 60.46475219726563 L 91.85697937011719 60.46498870849609 C 95.98466491699219 60.46498870849609 99.87739562988281 58.80880355834961 102.8180847167969 55.801513671875 C 105.7959518432617 52.7562255859375 107.4474792480469 48.69096374511719 107.4684219360352 44.35464477539063 C 107.4894790649414 40.0030403137207 105.8673477172852 35.91040802001953 102.9009246826172 32.83067321777344 C 100.0023956298828 29.82143402099609 96.15824890136719 28.1380729675293 92.06292724609375 28.08137512207031 C 92.02488708496094 28.08223724365234 91.98684692382813 28.08267211914063 91.94894409179688 28.08267211914063 C 89.6400146484375 28.08267211914063 87.59628295898438 26.48474502563477 87.07634735107422 24.18485641479492 C 86.58395385742188 22.0067253112793 85.75276184082031 19.94772338867188 84.60587310791016 18.06506729125977 C 83.49087524414063 16.23477554321289 82.10273742675781 14.61038208007813 80.48000335693359 13.23701477050781 C 78.86442565917969 11.86967086791992 77.05918884277344 10.78754043579102 75.11447143554688 10.02069854736328 C 73.1282958984375 9.237514495849609 71.03863525390625 8.801277160644531 68.90339660644531 8.724094390869141 C 68.67710876464844 8.715908050537109 68.44744873046875 8.711750030517578 68.22084045410156 8.711750030517578 M 68.22085571289063 3.711746215820313 C 68.50731658935547 3.711746215820313 68.79608154296875 3.716941833496094 69.08415985107422 3.72735595703125 C 80.08644866943359 4.125068664550781 89.46142578125 12.05948638916016 91.95329284667969 23.08235549926758 L 91.95329284667969 23.08014678955078 C 103.3400268554688 23.13830184936523 112.5249481201172 32.67404174804688 112.4683685302734 44.37880325317383 C 112.411994934082 56.04644393920898 103.1941604614258 65.46498870849609 91.85698699951172 65.46498870849609 C 91.82089233398438 65.46498870849609 91.78459167480469 65.46488952636719 91.74845123291016 65.46469879150391 L 19.85308074951172 65.46469879150391 C 13.81897735595703 65.38209533691406 8.319793701171875 61.88948822021484 5.548027038574219 56.37935638427734 C 2.776268005371094 50.86922454833984 3.182662963867188 44.2376708984375 6.605186462402344 39.12862014770508 C 9.676773071289063 34.5434684753418 14.72933959960938 31.85383605957031 20.06775665283203 31.85383605957031 C 20.67769622802734 31.85383605957031 21.29138946533203 31.88895034790039 21.90626525878906 31.96035766601563 C 21.84434509277344 31.51475143432617 21.84434509277344 31.06425094604492 21.84434509277344 30.60882949829102 C 21.84474182128906 24.97077560424805 25.21315765380859 19.91159439086914 30.32582092285156 17.87006759643555 C 31.89138031005859 17.24493408203125 33.52168273925781 16.94210052490234 35.13717651367188 16.94210052490234 C 38.79739379882813 16.94210052490234 42.37985229492188 18.49743270874023 44.94882202148438 21.38314437866211 C 48.10301208496094 10.85063552856445 57.56689071655273 3.711746215820313 68.22085571289063 3.711746215820313 Z" stroke="none" fill="#fff"/></g></g><line x1="5.107" y2="20.009" transform="translate(24.55 71.778)" fill="none" stroke="#fff" stroke-linecap="round" stroke-miterlimit="10" stroke-width="5"/><line x1="5.107" y2="20.004" transform="translate(40.118 87.953)" fill="none" stroke="#fff" stroke-linecap="round" stroke-miterlimit="10" stroke-width="5"/><line x1="5.107" y2="20.004" transform="translate(62.013 70.28)" fill="none" stroke="#fff" stroke-linecap="round" stroke-miterlimit="10" stroke-width="5"/><line x1="5.107" y2="20.004" transform="translate(77.581 86.449)" fill="none" stroke="#fff" stroke-linecap="round" stroke-miterlimit="10" stroke-width="5"/></g></g></g><g transform="translate(-423 13)" clip-path="url(#e)" style="isolation:isolate"><g transform="translate(1030 359.861)"><g clip-path="url(#f)"><g transform="translate(-0.65 -0.463)" fill="none" stroke-linecap="round" stroke-linejoin="round" stroke-miterlimit="10"><path d="M95.121,24.311C92.53,12.382,82.779,3.795,71.336,3.364s-21.733,7.4-25.1,19.108a13.217,13.217,0,0,0-15.209-3.8A14.807,14.807,0,0,0,22.2,32.457a11.037,11.037,0,0,0,.064,1.463A16.594,16.594,0,0,0,6.355,41.677a19.267,19.267,0,0,0-1.1,18.67A16.922,16.922,0,0,0,20.134,70.18H94.908c11.843.065,21.491-10.153,21.55-22.82s-9.494-22.988-21.337-23.051Z" stroke="none"/><path d="M 70.43850708007813 8.347381591796875 C 68.28616333007813 8.347381591796875 66.16093444824219 8.715858459472656 64.12179565429688 9.442543029785156 C 62.11272048950195 10.15854263305664 60.22385406494141 11.20783233642578 58.50769424438477 12.561279296875 C 56.77251052856445 13.92972564697266 55.2551155090332 15.57646179199219 53.99766540527344 17.45572662353516 C 52.69769287109375 19.39854049682617 51.70243072509766 21.55162048339844 51.03948211669922 23.85517120361328 C 50.53077697753906 25.622802734375 49.09259033203125 26.96841049194336 47.29505920410156 27.35856628417969 C 46.94223022460938 27.43515014648438 46.58693695068359 27.47248077392578 46.234375 27.47248077392578 C 44.79080200195313 27.47248077392578 43.39622497558594 26.8460578918457 42.43519592285156 25.72272491455078 C 40.77324676513672 23.78014755249023 38.43864440917969 22.666015625 36.02998352050781 22.666015625 C 34.9752197265625 22.666015625 33.93708801269531 22.87514495849609 32.94440460205078 23.28762054443359 C 31.28272247314453 23.97804260253906 29.86109161376953 25.19217300415039 28.83314514160156 26.79872512817383 C 27.76801300048828 28.46343612670898 27.20493316650391 30.42012023925781 27.20480346679688 32.45688247680664 C 27.20480346679688 32.76059341430664 27.20480346679688 33.10483169555664 27.22519683837891 33.25754165649414 C 27.43000793457031 34.79069900512695 26.9136962890625 36.33232879638672 25.82682800292969 37.43291091918945 C 24.88176727294922 38.38984680175781 23.59804534912109 38.91960144042969 22.26958465576172 38.91960144042969 C 22.07021331787109 38.91960144042969 21.86968231201172 38.90765762329102 21.66929626464844 38.8834342956543 C 21.23464202880859 38.83090972900391 20.79314422607422 38.80427932739258 20.35708618164063 38.80427932739258 C 16.47138214111328 38.80427932739258 12.80874633789063 40.8901481628418 10.55950927734375 44.38396453857422 C 9.277534484863281 46.37532806396484 8.524246215820313 48.71272277832031 8.381118774414063 51.14346313476563 C 8.237533569335938 53.58125305175781 8.713485717773438 56.01132965087891 9.75750732421875 58.17098999023438 C 11.81232452392578 62.42161178588867 15.80142211914063 65.10471343994141 20.17327117919922 65.17977905273438 L 94.90827178955078 65.17977905273438 C 94.91761779785156 65.17977905273438 94.92695617675781 65.17980194091797 94.93627166748047 65.17985534667969 L 95.02116394042969 65.18009185791016 C 99.33061218261719 65.18009185791016 103.4056396484375 63.36919784545898 106.4956130981445 60.08103942871094 C 109.6731948852539 56.69959259033203 111.4355392456055 52.17343521118164 111.4580078125 47.33625030517578 C 111.5037231445313 37.49483489990234 104.2381134033203 29.44003295898438 95.23370361328125 29.31022644042969 C 95.19471740722656 29.31113433837891 95.15589904785156 29.31158447265625 95.11705780029297 29.31158447265625 C 92.79049682617188 29.31158447265625 90.73886871337891 27.69070053100586 90.23529815673828 25.37277984619141 C 89.71063995361328 22.95769882202148 88.825927734375 20.67638397216797 87.60577392578125 18.59219741821289 C 86.42498779296875 16.57525253295898 84.95729827880859 14.78727722167969 83.24345397949219 13.27793502807617 C 81.54695892333984 11.78385543823242 79.65419006347656 10.60259246826172 77.61775207519531 9.766986846923828 C 75.54737854003906 8.917465209960938 73.37077331542969 8.444328308105469 71.1485595703125 8.360748291015625 C 70.91261291503906 8.351882934570313 70.67372131347656 8.347381591796875 70.43850708007813 8.347381591796875 M 70.43850708007813 3.347381591796875 C 70.7364501953125 3.347381591796875 71.03675842285156 3.353004455566406 71.33638000488281 3.364280700683594 C 82.77925109863281 3.794723510742188 92.52967071533203 12.38177871704102 95.12132263183594 24.31130599975586 L 95.12135314941406 24.30893707275391 C 106.9640655517578 24.37188339233398 116.5167999267578 34.69196319580078 116.4579544067383 47.35948944091797 C 116.399299621582 59.98680877685547 106.8123626708984 70.18009185791016 95.02117156982422 70.18009185791016 C 94.98362731933594 70.18009185791016 94.94586181640625 70.17998504638672 94.90827178955078 70.17977905273438 L 20.13379669189453 70.17977905273438 C 13.85806274414063 70.09038543701172 8.138671875 66.31048583984375 5.255905151367188 60.34712219238281 C 2.373115539550781 54.3837776184082 2.795799255371094 47.20672607421875 6.355377197265625 41.67745971679688 C 9.549964904785156 36.71516418457031 14.80487823486328 33.80428314208984 20.35707855224609 33.80428314208984 C 20.99143981933594 33.80428314208984 21.62972259521484 33.84228515625 22.26921844482422 33.9195671081543 C 22.20480346679688 33.43730545043945 22.20480346679688 32.94975280761719 22.20480346679688 32.45688247680664 C 22.20519256591797 26.35506820678711 25.70851135253906 20.87972640991211 31.02590179443359 18.67033004760742 C 32.65416717529297 17.99376678466797 34.34979248046875 17.666015625 36.02998352050781 17.666015625 C 39.83677673339844 17.666015625 43.56266784667969 19.34926986694336 46.23451232910156 22.47233200073242 C 49.5150146484375 11.07350921630859 59.35789108276367 3.347381591796875 70.43850708007813 3.347381591796875 Z" stroke="none" fill="#fff"/></g></g></g></g><g transform="translate(144.5 336.5)" style="isolation:isolate"><g transform="translate(53.5 16.5)"><line y2="115.733" transform="translate(16.355)" fill="none" stroke="#fff" stroke-linecap="round" stroke-miterlimit="10" stroke-width="5"/><line y2="115.733" transform="translate(55.907)" fill="none" stroke="#fff" stroke-linecap="round" stroke-miterlimit="10" stroke-width="5"/><line x2="67.618" transform="translate(0 12.343)" fill="none" stroke="#fff" stroke-linecap="round" stroke-miterlimit="10" stroke-width="5"/><line x2="67.618" transform="translate(0.849 33.159)" fill="none" stroke="#fff" stroke-linecap="round" stroke-miterlimit="10" stroke-width="5"/><line x2="67.618" transform="translate(0.849 57.863)" fill="none" stroke="#fff" stroke-linecap="round" stroke-miterlimit="10" stroke-width="5"/><line x2="67.618" transform="translate(0.849 82.574)" fill="none" stroke="#fff" stroke-linecap="round" stroke-miterlimit="10" stroke-width="5"/><line x2="67.618" transform="translate(0.849 103.39)" fill="none" stroke="#fff" stroke-linecap="round" stroke-miterlimit="10" stroke-width="5"/></g></g><g transform="translate(-344 14)" clip-path="url(#g)" style="isolation:isolate"><g transform="translate(524 543.653)"><g clip-path="url(#h)"><path d="M66.836,83.525c-.681,2.117-1.12,4.753-2,7.389,3.075,2.2,6.15,3.075,9.225,5.272-1.318,4.832-2.2,9.225-3.589,14.132" transform="translate(-17.558 -22.621)" fill="none" stroke="#fff" stroke-linecap="round" stroke-linejoin="round" stroke-miterlimit="10" stroke-width="5"/><g transform="translate(2.399 2.391)"><g transform="translate(-3.288 -3.279)" fill="none" stroke-linecap="round" stroke-linejoin="round" stroke-miterlimit="10"><path d="M84.651,20.656a22.461,22.461,0,0,0-43.345-1.524A12.261,12.261,0,0,0,20,27.408a8.558,8.558,0,0,0,.057,1.212,15.077,15.077,0,1,0-1.893,30.056h66.3a19.012,19.012,0,1,0,.189-38.023Z" stroke="none"/><path d="M 62.7656364440918 8.279090881347656 C 59.01401138305664 8.279090881347656 55.43283462524414 9.457416534423828 52.40928649902344 11.68669128417969 C 49.3792610168457 13.92071533203125 47.19205856323242 17.00394058227539 46.08413696289063 20.6030158996582 C 45.55661010742188 22.31664276123047 44.15190887451172 23.61664199829102 42.40261077880859 24.01006698608398 C 42.03810119628906 24.0920524597168 41.67030334472656 24.13205718994141 41.30538940429688 24.13205718994141 C 39.91907501220703 24.13205718994141 38.57503509521484 23.5545654296875 37.61681365966797 22.50744247436523 C 36.24461364746094 21.00794219970703 34.291259765625 20.14794158935547 32.25763702392578 20.14794158935547 C 31.35738372802734 20.14794158935547 30.47376251220703 20.31386566162109 29.63130950927734 20.64111709594727 C 28.26141357421875 21.17326736450195 27.09860992431641 22.0955924987793 26.26858520507813 23.30836486816406 C 25.43856048583984 24.52114105224609 24.99978637695313 25.93896484375 24.99968719482422 27.40824127197266 C 24.99968719482422 27.58891296386719 24.99968719482422 27.83533477783203 25.00809478759766 27.92470550537109 C 25.22304534912109 29.4535026550293 24.71966552734375 30.99600982666016 23.64388275146484 32.10388946533203 C 22.69699096679688 33.07903671264648 21.40062713623047 33.6207275390625 20.05713653564453 33.6207275390625 C 19.87065124511719 33.6207275390625 19.68301391601563 33.61026763916016 19.49553680419922 33.58909225463867 C 19.11973571777344 33.5466423034668 18.7381591796875 33.52511596679688 18.36135864257813 33.52511596679688 C 15.04721069335938 33.52511596679688 11.94576263427734 35.15574264526367 10.06495666503906 37.88703918457031 C 7.951309204101563 40.95648956298828 7.701637268066406 44.91976928710938 9.413406372070313 48.23021697998047 C 11.12059020996094 51.53177642822266 14.48506927490234 53.61676788330078 18.19966125488281 53.67716598510742 L 84.46163940429688 53.67716598510742 C 84.47038269042969 53.67716598510742 84.47913360595703 53.67719268798828 84.48788452148438 53.67724227905273 L 84.56170654296875 53.67741775512695 C 88.28848266601563 53.67741775512695 91.79653930664063 52.22929382324219 94.43965911865234 49.59976577758789 C 97.08368682861328 46.96934127807617 98.55001068115234 43.4664421081543 98.56853485107422 39.73634338378906 C 98.58713531494141 35.99349212646484 97.14708709716797 32.46741485595703 94.51361083984375 29.80766677856445 C 91.90989685058594 27.17794799804688 88.44784545898438 25.70633316040039 84.75247955322266 25.65547943115234 C 84.71696472167969 25.65623474121094 84.68170928955078 25.6566047668457 84.64631652832031 25.6566047668457 C 82.34745788574219 25.6566047668457 80.31124877929688 24.07307434082031 79.78028869628906 21.78804016113281 C 79.34115600585938 19.89839172363281 78.59921264648438 18.11096572875977 77.57503509521484 16.47544097900391 C 76.57536315917969 14.87904357910156 75.32913208007813 13.46086502075195 73.87098693847656 12.26031494140625 C 72.41283416748047 11.05976486206055 70.78178405761719 10.10896682739258 69.02318572998047 9.434341430664063 C 67.22145843505859 8.743190765380859 65.32483673095703 8.358192443847656 63.38588333129883 8.289993286132813 C 63.1802864074707 8.282768249511719 62.97161102294922 8.279090881347656 62.7656364440918 8.279090881347656 M 62.76562881469727 3.279087066650391 C 63.02979278564453 3.279087066650391 63.29610443115234 3.283748626708984 63.56175994873047 3.2930908203125 C 73.70748901367188 3.649890899658203 82.3526611328125 10.76779174804688 84.6505126953125 20.65631484985352 L 84.65053558349609 20.65434265136719 C 95.15078735351563 20.70651626586914 103.6206588745117 29.26094055175781 103.5684814453125 39.76119232177734 C 103.5164794921875 50.22814178466797 95.01625061035156 58.67742538452148 84.56170654296875 58.67742538452148 C 84.52841949462891 58.67742538452148 84.49496459960938 58.67733764648438 84.46163940429688 58.67716598510742 L 18.16340637207031 58.67716598510742 C 12.59908294677734 58.60306549072266 7.528038024902344 55.46989059448242 4.972038269042969 50.52676773071289 C 2.416061401367188 45.58369445800781 2.790809631347656 39.63456726074219 5.946884155273438 35.05129241943359 C 8.779342651367188 30.93798065185547 13.43854522705078 28.52512741088867 18.36136627197266 28.52512741088867 C 18.92382049560547 28.52512741088867 19.48977661132813 28.5566291809082 20.05678558349609 28.62069320678711 C 19.99968719482422 28.22094345092773 19.99968719482422 27.81679153442383 19.99968719482422 27.40824127197266 C 20.00003814697266 22.35039138793945 23.10620880126953 17.81184005737305 27.82083892822266 15.98041534423828 C 29.26451873779297 15.41960906982422 30.76789855957031 15.1479377746582 32.25762939453125 15.1479377746582 C 35.63289642333984 15.1479377746582 38.93646240234375 16.54321670532227 41.30543518066406 19.13194274902344 C 44.21407699584961 9.683345794677734 52.94113540649414 3.279087066650391 62.76562881469727 3.279087066650391 Z" stroke="none" fill="#fff"/></g></g></g></g></g><g transform="translate(422 536)" clip-path="url(#i)" style="isolation:isolate"><g transform="translate(13.849 3.488)"><g transform="translate(0 0)"><g transform="translate(-3.813 -4.632)" fill="none" stroke-linecap="round" stroke-miterlimit="10"><path d="M81.732,86.615A47.993,47.993,0,0,1,47.861,4.632a47.98,47.98,0,1,0,37.8,81.806C84.367,86.546,83.059,86.615,81.732,86.615Z" stroke="none"/><path d="M 51.78140258789063 95.43128204345703 C 57.38095092773438 95.43128204345703 62.84692764282227 94.36110687255859 68.02750396728516 92.25048065185547 C 69.2247314453125 91.76271820068359 70.39393615722656 91.22431945800781 71.53343963623047 90.63638305664063 C 54.29721450805664 87.28507232666016 39.66604614257813 75.55187225341797 32.76860427856445 58.86663055419922 C 26.44211578369141 43.55334854125977 27.67122840881348 26.59517860412598 35.52007293701172 12.66696453094482 C 35.28296661376953 12.76401901245117 35.04648208618164 12.86329460144043 34.8109016418457 12.96468257904053 C 30.63655281066895 14.76125717163086 26.78777694702148 17.19950675964355 23.37142753601074 20.21173286437988 C 19.95510292053223 23.22395706176758 17.0540771484375 26.73710632324219 14.74890232086182 30.65360641479492 C 12.38852787017822 34.66393280029297 10.70320320129395 39.01593399047852 9.739703178405762 43.5887565612793 C 8.776227951049805 48.16158294677734 8.562302589416504 52.82363128662109 9.103927612304688 57.44538116455078 C 9.632877349853516 61.95903396606445 10.86977767944336 66.34405517578125 12.78027820587158 70.47863006591797 C 14.69080257415771 74.61320495605469 17.22860336303711 78.39710998535156 20.32320213317871 81.72523498535156 C 23.49190330505371 85.133056640625 27.18095207214355 87.99160766601563 31.2878532409668 90.22150421142578 C 34.46425247192383 91.94618225097656 37.84385299682617 93.26483154296875 41.33277893066406 94.14083099365234 C 44.7431526184082 94.99710845947266 48.25857925415039 95.43128204345703 51.78140258789063 95.43128204345703 M 51.78139877319336 100.4312744140625 C 43.97298431396484 100.4312744140625 36.10636138916016 98.52727508544922 28.90202713012695 94.61558532714844 C 10.2549524307251 84.49090576171875 0.4724777638912201 63.32048034667969 4.847127914428711 42.55790710449219 C 9.221753120422363 21.79533195495605 26.71452713012695 6.371757030487061 47.86147689819336 4.631607055664063 C 34.1046028137207 18.34380722045898 29.96925354003906 38.99610900878906 37.38975143432617 56.95745849609375 C 44.81015396118164 74.90776062011719 62.31862640380859 86.61550903320313 81.73197937011719 86.61550903320313 C 83.05910491943359 86.61550903320313 84.36720275878906 86.545654296875 85.66257476806641 86.43770599365234 C 76.43913269042969 95.62819671630859 64.18357849121094 100.4312744140625 51.78139877319336 100.4312744140625 Z" stroke="none" fill="#fff"/></g></g></g></g><g transform="translate(620.088 538)" clip-path="url(#j)" style="isolation:isolate"><g transform="translate(2.381 9.66)"><g transform="translate(0 0)"><path d="M60.217,21.789V20.783" transform="translate(-17.927 -7.756)" fill="none" stroke="#fff" stroke-linecap="round" stroke-miterlimit="10" stroke-width="5"/><path d="M60.263,16.276a14.053,14.053,0,1,1,14.019,15.06" transform="translate(-17.939 -3.228)" fill="none" stroke="#fff" stroke-linecap="round" stroke-miterlimit="10" stroke-width="5"/><line x1="57.24" transform="translate(0 28.107)" fill="none" stroke="#fff" stroke-linecap="round" stroke-miterlimit="10" stroke-width="5"/><path d="M110.9,34.347A14.053,14.053,0,1,1,124.949,48.4" transform="translate(-30.998 -7.63)" fill="none" stroke="#fff" stroke-linecap="round" stroke-miterlimit="10" stroke-width="5"/><line x1="95.094" transform="translate(0.219 40.689)" fill="none" stroke="#fff" stroke-linecap="round" stroke-miterlimit="10" stroke-width="5"/><path d="M78.509,89.4a14.053,14.053,0,1,0,15.361-14" transform="translate(-22.645 -21.843)" fill="none" stroke="#fff" stroke-linecap="round" stroke-miterlimit="10" stroke-width="5"/><line x1="70.931" transform="translate(0 53.503)" fill="none" stroke="#fff" stroke-linecap="round" stroke-miterlimit="10" stroke-width="5"/></g></g></g><g transform="translate(134 -152)" clip-path="url(#k)" style="isolation:isolate"><g transform="translate(1348.429 520)"><g clip-path="url(#l)"><g transform="translate(-0.703 -2.072)" fill="none" stroke-linecap="round" stroke-miterlimit="10"><path d="M27.779,8.471s53.594,93.346,0,93.346S27.779,8.471,27.779,8.471Z" stroke="none"/><path d="M 27.77912139892578 19.09382629394531 C 24.734619140625 25.07418060302734 20.57665252685547 33.78392791748047 16.95382308959961 43.27237701416016 C 13.11704635620117 53.32117462158203 10.62897109985352 62.24240112304688 9.558696746826172 69.78827667236328 C 8.948394775390625 74.09124755859375 8.803947448730469 77.95142364501953 9.129421234130859 81.26155090332031 C 9.459819793701172 84.62190246582031 10.2781982421875 87.44937133789063 11.56174468994141 89.66549682617188 C 12.86054611206055 91.90789794921875 14.64264678955078 93.56772613525391 17.00987243652344 94.73985290527344 C 19.79309463500977 96.11795043945313 23.41639709472656 96.81669616699219 27.77912139892578 96.81669616699219 C 32.141845703125 96.81669616699219 35.76514434814453 96.11795043945313 38.54837036132813 94.73985290527344 C 40.91559600830078 93.56772613525391 42.69769668579102 91.90789794921875 43.99649810791016 89.66549682617188 C 45.28004455566406 87.44937133789063 46.09841918945313 84.62190246582031 46.4288215637207 81.26155090332031 C 46.75429534912109 77.95142364501953 46.60984802246094 74.09124755859375 45.99954605102539 69.78827667236328 C 44.92927169799805 62.24240112304688 42.44119644165039 53.32117462158203 38.60442352294922 43.27237701416016 C 34.98159027099609 33.78392791748047 30.82362365722656 25.07418060302734 27.77912139892578 19.09382629394531 M 27.77912139892578 8.471046447753906 C 27.77912139892578 8.471046447753906 81.37342071533203 101.8166961669922 27.77912139892578 101.8166961669922 C -25.81517791748047 101.8166961669922 27.77912139892578 8.471046447753906 27.77912139892578 8.471046447753906 Z" stroke="none" fill="#fff"/></g><path d="M36.329,110.933c-.817.068-1.681.1-2.582.1-13.162,0-14.546-10.187-14.546-17.447" transform="translate(-3.411 -22.894)" fill="none" stroke="#fff" stroke-linecap="round" stroke-miterlimit="10" stroke-width="5"/></g></g></g><g transform="translate(-370)" clip-path="url(#m)" style="isolation:isolate"><g transform="translate(551.984 714)"><line x2="106.904" transform="translate(2.064 106.48)" fill="none" stroke="#fff" stroke-linecap="round" stroke-miterlimit="10" stroke-width="5"/><line x2="106.904" transform="translate(2.064 120.936)" fill="none" stroke="#fff" stroke-linecap="round" stroke-miterlimit="10" stroke-width="5"/><line y2="14.457" transform="translate(2.064 106.48)" fill="none" stroke="#fff" stroke-linecap="round" stroke-miterlimit="10" stroke-width="5"/><line y2="14.457" transform="translate(108.968 106.48)" fill="none" stroke="#fff" stroke-linecap="round" stroke-miterlimit="10" stroke-width="5"/><line x2="106.904" transform="translate(2.064 2.064)" fill="none" stroke="#fff" stroke-linecap="round" stroke-miterlimit="10" stroke-width="5"/><line x2="106.904" transform="translate(2.064 16.52)" fill="none" stroke="#fff" stroke-linecap="round" stroke-miterlimit="10" stroke-width="5"/><line y2="14.457" transform="translate(2.064 2.064)" fill="none" stroke="#fff" stroke-linecap="round" stroke-miterlimit="10" stroke-width="5"/><line y2="14.457" transform="translate(108.968 2.064)" fill="none" stroke="#fff" stroke-linecap="round" stroke-miterlimit="10" stroke-width="5"/><line x2="0.802" y2="89.11" transform="translate(17.169 16.52)" fill="none" stroke="#fff" stroke-linecap="round" stroke-miterlimit="10" stroke-width="5"/><line x2="0.802" y2="89.11" transform="translate(5.896 17.411)" fill="none" stroke="#fff" stroke-linecap="round" stroke-miterlimit="10" stroke-width="5"/><line x2="0.808" y2="89.11" transform="translate(93.291 16.52)" fill="none" stroke="#fff" stroke-linecap="round" stroke-miterlimit="10" stroke-width="5"/><line x2="0.802" y2="89.11" transform="translate(104.935 16.52)" fill="none" stroke="#fff" stroke-linecap="round" stroke-miterlimit="10" stroke-width="5"/><g fill="none" stroke-linecap="round" stroke-linejoin="round"><path d="M69.436,106.073c36.372-58.593-22.222-63.51-22.222-63.51s14.946,1.769-1.963,18.684c-24.58,24.574,0,44.809,0,44.809Z" stroke="none"/><path d="M 66.62031555175781 101.0708465576172 C 71.69185638427734 92.48125457763672 74.81037902832031 84.73431396484375 75.8992919921875 78.01211547851563 C 76.39920806884766 74.92591857910156 76.4710693359375 72.02616882324219 76.11290740966797 69.39340972900391 C 75.79689025878906 67.07057952880859 75.13578033447266 64.89131927490234 74.14794921875 62.91619491577148 C 72.67693328857422 59.97500991821289 70.41785430908203 57.35476684570313 67.43345642089844 55.12825775146484 C 64.91104125976563 53.24641036987305 61.86788940429688 51.634765625 58.38853454589844 50.33810424804688 C 58.3028450012207 50.30616760253906 58.21785354614258 50.27478408813477 58.13247299194336 50.24354553222656 C 57.90717697143555 51.52411270141602 57.47342681884766 52.85076904296875 56.83171844482422 54.21818161010742 C 55.3343505859375 57.408935546875 52.70291900634766 60.86418151855469 48.78604125976563 64.78242492675781 C 45.1951789855957 68.37242889404297 42.59228897094727 72.03425598144531 41.04968643188477 75.66619873046875 C 39.7871208190918 78.63876342773438 39.21368789672852 81.65622711181641 39.34528732299805 84.63478088378906 C 39.44572067260742 86.90793609619141 39.95642852783203 89.21498107910156 40.86322784423828 91.49185943603516 C 41.61721038818359 93.38499450683594 42.64581298828125 95.26598358154297 43.92048645019531 97.08258056640625 C 45.14142227172852 98.82259368896484 46.36287307739258 100.1779479980469 47.22826385498047 101.0566711425781 L 66.62031555175781 101.0708465576172 M 69.43585968017578 106.0729064941406 L 45.25093460083008 106.0552291870117 C 45.25093460083008 106.0552291870117 20.67098045349121 85.82053375244141 45.25093460083008 61.2464714050293 C 62.16033554077148 44.33118057250977 47.21425628662109 42.56241226196289 47.21425628662109 42.56241226196289 C 47.21425628662109 42.56241226196289 105.8075942993164 47.47957992553711 69.43585968017578 106.0729064941406 Z" stroke="none" fill="#fff"/></g><g fill="none" stroke-linecap="round" stroke-linejoin="round"><path d="M46.9,106.262h21.88s0-25.405-10.937-26.5C60.645,91.893,46.9,106.262,46.9,106.262Z" stroke="none"/><path d="M 63.5136604309082 101.2615661621094 C 63.33273696899414 99.26200866699219 63.02962112426758 96.86360168457031 62.52175903320313 94.45351409912109 C 62.3013916015625 93.40775299072266 62.05472946166992 92.42488861083984 61.7852668762207 91.51486206054688 C 60.86416244506836 94.28694152832031 59.50249862670898 97.16812133789063 57.70307922363281 100.1468124389648 C 57.47383880615234 100.5262908935547 57.2428092956543 100.8981552124023 57.01137161254883 101.2615661621094 L 63.5136604309082 101.2615661621094 M 68.78141784667969 106.2615661621094 L 46.90178680419922 106.2615661621094 C 46.90178680419922 106.2615661621094 60.64509963989258 91.89329528808594 57.84454727172852 79.76545715332031 C 68.78141784667969 80.85619354248047 68.78141784667969 106.2615661621094 68.78141784667969 106.2615661621094 Z" stroke="none" fill="#fff"/></g><path d="M17.753,63.3c0-52.385,76.128-52.992,76.128,0" fill="none" stroke="#fff" stroke-linecap="round" stroke-linejoin="round" stroke-width="5"/><line x2="11.597" transform="translate(5.973 25.995)" stroke-width="5" stroke="#fff" stroke-linecap="round" stroke-linejoin="round" fill="none"/><line x2="11.597" transform="translate(5.973 33.377)" stroke-width="5" stroke="#fff" stroke-linecap="round" stroke-linejoin="round" fill="none"/><line x2="11.597" transform="translate(5.973 40.752)" stroke-width="5" stroke="#fff" stroke-linecap="round" stroke-linejoin="round" fill="none"/><line x2="11.597" transform="translate(5.973 48.128)" stroke-width="5" stroke="#fff" stroke-linecap="round" stroke-linejoin="round" fill="none"/><line x2="11.597" transform="translate(5.973 55.51)" stroke-width="5" stroke="#fff" stroke-linecap="round" stroke-linejoin="round" fill="none"/><line x2="11.597" transform="translate(5.973 62.886)" stroke-width="5" stroke="#fff" stroke-linecap="round" stroke-linejoin="round" fill="none"/><line x2="11.597" transform="translate(5.973 70.261)" stroke-width="5" stroke="#fff" stroke-linecap="round" stroke-linejoin="round" fill="none"/><line x2="11.597" transform="translate(5.973 77.643)" stroke-width="5" stroke="#fff" stroke-linecap="round" stroke-linejoin="round" fill="none"/><line x2="11.597" transform="translate(5.973 85.019)" stroke-width="5" stroke="#fff" stroke-linecap="round" stroke-linejoin="round" fill="none"/><line x2="11.597" transform="translate(5.973 92.4)" stroke-width="5" stroke="#fff" stroke-linecap="round" stroke-linejoin="round" fill="none"/><line x2="11.597" transform="translate(5.973 99.776)" stroke-width="5" stroke="#fff" stroke-linecap="round" stroke-linejoin="round" fill="none"/><line x2="11.597" transform="translate(93.88 25.995)" stroke-width="5" stroke="#fff" stroke-linecap="round" stroke-linejoin="round" fill="none"/><line x2="11.597" transform="translate(93.88 33.377)" stroke-width="5" stroke="#fff" stroke-linecap="round" stroke-linejoin="round" fill="none"/><line x2="11.597" transform="translate(93.88 40.752)" stroke-width="5" stroke="#fff" stroke-linecap="round" stroke-linejoin="round" fill="none"/><line x2="11.597" transform="translate(93.88 48.128)" stroke-width="5" stroke="#fff" stroke-linecap="round" stroke-linejoin="round" fill="none"/><line x2="11.597" transform="translate(93.88 55.51)" stroke-width="5" stroke="#fff" stroke-linecap="round" stroke-linejoin="round" fill="none"/><line x2="11.597" transform="translate(93.88 62.886)" stroke-width="5" stroke="#fff" stroke-linecap="round" stroke-linejoin="round" fill="none"/><line x2="11.597" transform="translate(93.88 70.261)" stroke-width="5" stroke="#fff" stroke-linecap="round" stroke-linejoin="round" fill="none"/><line x2="11.597" transform="translate(93.88 77.643)" stroke-width="5" stroke="#fff" stroke-linecap="round" stroke-linejoin="round" fill="none"/><line x2="11.597" transform="translate(93.88 85.019)" stroke-width="5" stroke="#fff" stroke-linecap="round" stroke-linejoin="round" fill="none"/><line x2="11.597" transform="translate(93.88 92.4)" stroke-width="5" stroke="#fff" stroke-linecap="round" stroke-linejoin="round" fill="none"/><line x2="11.597" transform="translate(93.88 99.776)" stroke-width="5" stroke="#fff" stroke-linecap="round" stroke-linejoin="round" fill="none"/><line y2="14.864" transform="translate(11.768 106.073)" stroke-width="5" stroke="#fff" stroke-linecap="round" stroke-linejoin="round" fill="none"/><line y2="14.864" transform="translate(23.047 106.073)" stroke-width="5" stroke="#fff" stroke-linecap="round" stroke-linejoin="round" fill="none"/><line y2="14.864" transform="translate(34.326 106.073)" stroke-width="5" stroke="#fff" stroke-linecap="round" stroke-linejoin="round" fill="none"/><line y2="14.864" transform="translate(45.605 106.073)" stroke-width="5" stroke="#fff" stroke-linecap="round" stroke-linejoin="round" fill="none"/><line y2="14.864" transform="translate(56.884 106.073)" stroke-width="5" stroke="#fff" stroke-linecap="round" stroke-linejoin="round" fill="none"/><line y2="14.864" transform="translate(68.162 106.073)" stroke-width="5" stroke="#fff" stroke-linecap="round" stroke-linejoin="round" fill="none"/><line y2="14.864" transform="translate(79.441 106.073)" stroke-width="5" stroke="#fff" stroke-linecap="round" stroke-linejoin="round" fill="none"/><line y2="14.864" transform="translate(90.714 106.073)" stroke-width="5" stroke="#fff" stroke-linecap="round" stroke-linejoin="round" fill="none"/><line y2="14.864" transform="translate(101.993 106.073)" stroke-width="5" stroke="#fff" stroke-linecap="round" stroke-linejoin="round" fill="none"/></g></g><g transform="translate(-370)" clip-path="url(#n)" style="isolation:isolate"><g transform="translate(805.656 738.227)"><path d="M3.008,3.008c4.074,15.8,34.379,15.359,39.192,0" fill="none" stroke="#fff" stroke-linecap="round" stroke-linejoin="round" stroke-width="5"/><path d="M42.2,3.008c4.074,15.8,34.379,15.359,39.183,0" fill="none" stroke="#fff" stroke-linecap="round" stroke-linejoin="round" stroke-width="5"/><path d="M81.383,3.008c4.074,15.8,34.379,15.359,39.192,0" fill="none" stroke="#fff" stroke-linecap="round" stroke-linejoin="round" stroke-width="5"/><path d="M3.008,27.812c4.074,15.8,34.379,15.359,39.192,0" fill="none" stroke="#fff" stroke-linecap="round" stroke-linejoin="round" stroke-width="5"/><path d="M42.2,27.812c4.074,15.8,34.379,15.359,39.183,0" fill="none" stroke="#fff" stroke-linecap="round" stroke-linejoin="round" stroke-width="5"/><path d="M81.383,27.812c4.074,15.8,34.379,15.359,39.192,0" fill="none" stroke="#fff" stroke-linecap="round" stroke-linejoin="round" stroke-width="5"/><path d="M3.008,52.616c4.074,15.8,34.379,15.359,39.192,0" fill="none" stroke="#fff" stroke-linecap="round" stroke-linejoin="round" stroke-width="5"/><path d="M42.2,52.616c4.074,15.8,34.379,15.359,39.183,0" fill="none" stroke="#fff" stroke-linecap="round" stroke-linejoin="round" stroke-width="5"/><path d="M81.383,52.616c4.074,15.8,34.379,15.359,39.192,0" fill="none" stroke="#fff" stroke-linecap="round" stroke-linejoin="round" stroke-width="5"/></g></g><g transform="translate(-434 -5)" clip-path="url(#o)" style="isolation:isolate"><g transform="translate(1077.514 712)" style="isolation:isolate"><line x2="0.851" y2="98.453" transform="translate(49.783 22.583)" stroke-width="5" stroke="#fff" stroke-linecap="round" stroke-linejoin="round" fill="none"/><line x1="34.286" y1="35.443" transform="translate(15.925 51.073)" stroke-width="5" stroke="#fff" stroke-linecap="round" stroke-linejoin="round" fill="none"/><g fill="none" stroke-linecap="round" stroke-linejoin="round"><path d="M49.766,1.947s-30.114,23.034,0,45.689C79.875,24.791,49.766,1.947,49.766,1.947Z" stroke="none"/><path d="M 49.77688217163086 8.695980072021484 C 48.86819458007813 9.625877380371094 47.84292984008789 10.76404190063477 46.82890319824219 12.0731086730957 C 45.18120193481445 14.2001838684082 43.88339996337891 16.35921859741211 42.97152709960938 18.49023246765137 C 41.90132522583008 20.99122047424316 41.36665344238281 23.45879554748535 41.38233947753906 25.82440757751465 C 41.4008903503418 28.62203216552734 42.15683746337891 31.28934478759766 43.69337844848633 33.97875595092773 C 45.08489227294922 36.41432952880859 47.11647796630859 38.82540893554688 49.75420379638672 41.17583847045898 C 52.41292190551758 38.79112243652344 54.45737838745117 36.34849166870117 55.85341262817383 33.88465881347656 C 57.38981246948242 31.17308235168457 58.14035034179688 28.48904418945313 58.14790344238281 25.6791820526123 C 58.15423965454102 23.32115745544434 57.61422729492188 20.86591911315918 56.54286575317383 18.38166999816895 C 55.63037490844727 16.26581954956055 54.33512496948242 14.12479400634766 52.69308853149414 12.01809310913086 C 51.69009399414063 10.73126220703125 50.67653274536133 9.611911773681641 49.77688217163086 8.695980072021484 M 49.76621246337891 1.946819305419922 C 49.76621246337891 1.946819305419922 79.87513732910156 24.79133224487305 49.76621246337891 47.63584518432617 C 19.65172576904297 24.98044395446777 49.76621246337891 1.946819305419922 49.76621246337891 1.946819305419922 Z" stroke="none" fill="#fff"/></g><g fill="none" stroke-linecap="round" stroke-linejoin="round"><path d="M2.136,36.483S-2.1,70.141,29.492,65.408C33.841,31.883,2.136,36.483,2.136,36.483Z" stroke="none"/><path d="M 6.959806442260742 41.28923034667969 C 6.984079360961914 42.25350570678711 7.047809600830078 43.33639526367188 7.177885055541992 44.48601913452148 C 7.572673797607422 47.97526168823242 8.679264068603516 52.85174179077148 11.70907402038574 56.2682991027832 C 12.9670238494873 57.68682098388672 14.43856430053711 58.74555969238281 16.20778465270996 59.50500869750977 C 18.30819511413574 60.40662002563477 20.83467483520508 60.8637809753418 23.71704483032227 60.8637809753418 C 24.09518814086914 60.8637809753418 24.48091888427734 60.85588836669922 24.87358093261719 60.84016036987305 C 25.11797714233398 54.70508193969727 23.82674789428711 49.9912223815918 21.01872444152832 46.79516220092773 C 17.16845321655273 42.4128303527832 10.94296646118164 41.42897415161133 6.959806442260742 41.28923034667969 M 5.869848251342773 36.27005767822266 C 14.1196174621582 36.27046203613281 32.90435028076172 39.10419082641602 29.49150466918945 65.40750885009766 C 27.4146728515625 65.71867370605469 25.49559020996094 65.86377716064453 23.71704483032227 65.86377716064453 C -1.560733795166016 65.86377716064453 2.135934829711914 36.48336029052734 2.135934829711914 36.48336029052734 C 2.135934829711914 36.48336029052734 3.605091094970703 36.26994323730469 5.869848251342773 36.27005767822266 Z" stroke="none" fill="#fff"/></g><line y1="35.443" x2="34.281" transform="translate(49.766 51.073)" stroke-width="5" stroke="#fff" stroke-linecap="round" stroke-linejoin="round" fill="none"/><g fill="none" stroke-linecap="round" stroke-linejoin="round"><path d="M97.836,36.483s4.239,33.658-27.356,28.924C66.131,31.883,97.836,36.483,97.836,36.483Z" stroke="none"/><path d="M 93.01205444335938 41.28916931152344 C 89.02920532226563 41.42872619628906 82.80393218994141 42.41233825683594 78.95342254638672 46.79471969604492 C 76.14521789550781 49.9908332824707 74.85389709472656 54.70491027832031 75.09828186035156 60.84016036987305 C 75.49094390869141 60.85588836669922 75.87667083740234 60.8637809753418 76.25481414794922 60.8637809753418 C 79.13718414306641 60.8637809753418 81.66366577148438 60.40662002563477 83.76407623291016 59.50500869750977 C 85.53329467773438 58.74555969238281 87.00483703613281 57.68682098388672 88.26278686523438 56.2682991027832 C 91.29259490966797 52.85174179077148 92.39918518066406 47.97526168823242 92.79397583007813 44.48601913452148 C 92.92404937744141 43.33639526367188 92.98778533935547 42.25344467163086 93.01205444335938 41.28916931152344 M 94.10201263427734 36.27005767822266 C 96.36676788330078 36.27005767822266 97.83592987060547 36.48336029052734 97.83592987060547 36.48336029052734 C 97.83592987060547 36.48336029052734 101.5325927734375 65.86377716064453 76.25481414794922 65.86377716064453 C 74.47627258300781 65.86377716064453 72.55718994140625 65.71867370605469 70.48035430908203 65.40750885009766 C 67.06751251220703 39.10419082641602 85.85224151611328 36.27005767822266 94.10201263427734 36.27005767822266 Z" stroke="none" fill="#fff"/></g></g></g><g transform="translate(333 -346)" clip-path="url(#p)" style="isolation:isolate"><g transform="translate(1333.598 716.48)"><g transform="translate(0 0)"><path d="M61.691,60.026C82.461,9.485,38.786,2.752,38.786,2.752S53.1,4.644,36.88,22.708c-10.8,12.047-6.354,28.169-4.124,36.631" transform="translate(-5.748 -2.752)" fill="none" stroke="#fff" stroke-linecap="round" stroke-linejoin="round" stroke-width="5"/><path d="M60.714,66.216c-1.048-9.05-3.812-21.168-11.151-21.969,1.747,8.433-2.472,17.759-6.354,24.13" transform="translate(-8.297 -6.852)" fill="none" stroke="#fff" stroke-linecap="round" stroke-linejoin="round" stroke-width="5"/><g transform="translate(8.429 45.177) rotate(29.19)" fill="none" stroke-linecap="round"><path d="M4.961.09,81.855,3.766A5.9,5.9,0,0,1,87.21,9.423l.213,4.707A4.715,4.715,0,0,1,82.556,19.3L5.662,15.622A5.9,5.9,0,0,1,.306,9.966L.094,5.258A4.715,4.715,0,0,1,4.961.09Z" stroke="none"/><path d="M 5.091781616210938 5.102384567260742 L 5.301162719726563 9.740188598632813 C 5.323410034179688 10.23285007476807 5.739700317382813 10.60835742950439 5.900825500488281 10.62811183929443 L 82.42494201660156 14.28645515441895 L 82.21555328369141 9.648496627807617 C 82.19330596923828 9.155850410461426 81.77700805664063 8.78035831451416 81.61590576171875 8.760603904724121 L 5.091781616210938 5.102384567260742 M 4.726631164550781 0.08480453491210938 C 4.804336547851563 0.08480453491210938 4.882102966308594 0.0866546630859375 4.960845947265625 0.09041976928710938 L 81.85466003417969 3.766311645507813 C 84.67764282226563 3.901265144348145 87.07551574707031 6.433865547180176 87.21045684814453 9.423019409179688 L 87.42298126220703 14.13031196594238 C 87.55418395996094 17.03608894348145 85.49816131591797 19.30391120910645 82.79010009765625 19.30391120910645 C 82.71239471435547 19.30391120910645 82.63462829589844 19.30206108093262 82.55588531494141 19.29829597473145 L 5.662071228027344 15.62240409851074 C 2.839088439941406 15.48744964599609 0.4412155151367188 12.95485019683838 0.3062591552734375 9.965696334838867 L 0.0937347412109375 5.258419036865234 C -0.03745269775390625 2.352626800537109 2.018569946289063 0.08480453491210938 4.726631164550781 0.08480453491210938 Z" stroke="none" fill="#fff"/></g><path d="M42.463,94.485,12.086,112.443a4.51,4.51,0,0,1-3.788.406,5.135,5.135,0,0,1-2.934-2.7l-2.027-4.252a6.119,6.119,0,0,1-.367-4.229A5.446,5.446,0,0,1,5.4,98.39L28.148,84.925" transform="translate(-0.53 -10.87)" fill="none" stroke="#fff" stroke-linecap="round" stroke-linejoin="round" stroke-width="5"/><path d="M51.9,73.571,80.935,56.365a4.729,4.729,0,0,1,6.729,2.289l2.027,4.252a6.119,6.119,0,0,1,.364,4.225A5.446,5.446,0,0,1,87.632,70.4L66.252,83.081" transform="translate(-9.966 -7.984)" fill="none" stroke="#fff" stroke-linecap="round" stroke-linejoin="round" stroke-width="5"/></g></g></g><g transform="translate(-370)" clip-path="url(#q)" style="isolation:isolate"><g transform="translate(571.43 875)"><path d="M25.349,28.246H65.056L45.2,71.213,65.056,92.429v26.106" fill="none" stroke="#fff" stroke-linecap="round" stroke-miterlimit="10" stroke-width="5"/><g transform="translate(63.427 1.598)" fill="none" stroke="#fff" stroke-linecap="round" stroke-miterlimit="10" stroke-width="5"><circle cx="10.875" cy="10.875" r="10.875" stroke="none"/><circle cx="10.875" cy="10.875" r="8.375" fill="none"/></g><line x1="20.674" y2="38.067" transform="translate(22.016 76.112)" fill="none" stroke="#fff" stroke-linecap="round" stroke-miterlimit="10" stroke-width="5"/><path d="M47.109,123.4H72.672v-7.615" fill="none" stroke="#fff" stroke-linecap="round" stroke-miterlimit="10" stroke-width="5"/><path d="M1.6,107.479l20.94,15.263,4.495-6.156" fill="none" stroke="#fff" stroke-linecap="round" stroke-miterlimit="10" stroke-width="5"/></g></g><g transform="translate(-370)" clip-path="url(#r)" style="isolation:isolate"><g transform="translate(823.096 875)"><g transform="translate(0 4.801)"><g transform="translate(6.375 6.023)" fill="none" stroke="#fff" stroke-linecap="round" stroke-miterlimit="10" stroke-width="5"><circle cx="36.283" cy="36.283" r="36.283" stroke="none"/><circle cx="36.283" cy="36.283" r="33.783" fill="none"/></g><g transform="translate(42.646 21.607)" fill="none" stroke="#fff" stroke-linecap="round" stroke-miterlimit="10" stroke-width="5"><ellipse cx="17.803" cy="17.907" rx="17.803" ry="17.907" stroke="none"/><ellipse cx="17.803" cy="17.907" rx="15.303" ry="15.407" fill="none"/></g><g transform="translate(7.053 21.607)" fill="none" stroke="#fff" stroke-linecap="round" stroke-miterlimit="10" stroke-width="5"><ellipse cx="17.803" cy="17.907" rx="17.803" ry="17.907" stroke="none"/><ellipse cx="17.803" cy="17.907" rx="15.303" ry="15.407" fill="none"/></g><path d="M78.942,42.307v81.68S6.375,121.366,6.375,42.307" transform="translate(0 -4.801)" fill="none" stroke="#fff" stroke-linecap="round" stroke-miterlimit="10" stroke-width="5"/><path d="M33.408,45.859c-1.023,3.188-4.465,5.534-8.553,5.534s-7.523-2.34-8.559-5.528" transform="translate(0 -1.834)" fill="none" stroke="#fff" stroke-linecap="round" stroke-miterlimit="10" stroke-width="5"/><path d="M69.007,46.674c-1.03,3.194-4.472,5.534-8.559,5.534s-7.523-2.34-8.553-5.521" transform="translate(0 -1.868)" fill="none" stroke="#fff" stroke-linecap="round" stroke-miterlimit="10" stroke-width="5"/><path d="M.978.978A41.427,41.427,0,0,1,42.4,42.4" fill="none" stroke="#fff" stroke-linecap="round" stroke-miterlimit="10" stroke-width="5"/><path d="M42.4,42.8A41.432,41.432,0,0,1,83.831,1.369" fill="none" stroke="#fff" stroke-linecap="round" stroke-miterlimit="10" stroke-width="5"/><path d="M38.089,52.691,43.1,60.435l4.12-7.744" transform="translate(0 -2.154)" fill="none" stroke="#fff" stroke-linecap="round" stroke-miterlimit="10" stroke-width="5"/><path d="M58.049,75.174S56.3,111.881,78.942,112.983" transform="translate(0 -4.801)" fill="none" stroke="#fff" stroke-linecap="round" stroke-miterlimit="10" stroke-width="5"/></g></g></g><g transform="matrix(0.799, -0.602, 0.602, 0.799, -771.163, 870.326)" clip-path="url(#s)" style="isolation:isolate"><g transform="translate(1063.002 897.771)" style="isolation:isolate"><path d="M85.09,21.68c-14.923,8.9-80.107,5.44-80.107,5.44S74.954,97.208,114.166,44.534l6.744-8.153C138.781,15.288,114-14.284,92.434,12.9c-4,5-6.248,7.514-7.344,8.844" fill="none" stroke="#fff" stroke-linecap="round" stroke-miterlimit="10" stroke-width="5"/><path d="M33.342,49.882l-4.474,9.209L41.7,69.7l8.466,7" fill="none" stroke="#fff" stroke-linecap="round" stroke-miterlimit="10" stroke-width="5"/><line x1="3.339" y2="13.514" transform="translate(41.703 56.183)" fill="none" stroke="#fff" stroke-linecap="round" stroke-miterlimit="10" stroke-width="5"/><path d="M4.983,27.12S47.5,53.939,70.441,44.351" fill="none" stroke="#fff" stroke-linecap="round" stroke-miterlimit="10" stroke-width="5"/><path d="M85.168,21.628C96.53,27.094,108.074,45.4,105.661,53.7" fill="none" stroke="#fff" stroke-linecap="round" stroke-miterlimit="10" stroke-width="5"/><path d="M124.067,32.69l1.252,5.361-6.34.8" fill="none" stroke="#fff" stroke-linecap="round" stroke-miterlimit="10" stroke-width="5"/><g transform="matrix(0.637, -0.771, 0.771, 0.637, 110.885, 22.325)" fill="none" stroke="#fff" stroke-linecap="round" stroke-miterlimit="10" stroke-width="5"><ellipse cx="1.604" cy="1.618" rx="1.604" ry="1.618" stroke="none"/><ellipse cx="1.604" cy="1.618" rx="0.896" ry="0.882" fill="none"/></g></g></g><g transform="translate(1210 508)" fill="#464646" stroke="#fff" stroke-linecap="round" stroke-width="5"><rect width="129" height="125" stroke="none"/><rect x="2.5" y="2.5" width="124" height="120" fill="none"/></g><text transform="translate(947 190)" fill="#fff" font-size="30" font-family="SegoeUI-LightItalic, Segoe UI" font-weight="300" font-style="italic" letter-spacing="0.047em"><tspan x="-238.903" y="0">Creativity is intelligence having fun</tspan></text><path d="M21.493,1.368a1,1,0,0,1,1.7,0L43.737,34.462a1,1,0,0,1-.85,1.527H1.8a1,1,0,0,1-.85-1.527Z" transform="matrix(0.035, 0.999, -0.999, 0.035, 1254.704, 155.2)" fill="#424242"/><path d="M21.493,1.369a1,1,0,0,1,1.7,0l20.545,33.1A1,1,0,0,1,42.888,36H1.8a1,1,0,0,1-.85-1.527Z" transform="translate(620.5 202.5) rotate(-90)" fill="#424242"/><text transform="translate(1215 488)" fill="#fff" font-size="117" font-family="SymbolMT, Symbol" letter-spacing="-0.068em"><tspan x="27.894" y="118">+</tspan></text></g></svg>