<svg xmlns="http://www.w3.org/2000/svg" viewBox="0 0 98.89 60.3"><defs><style>.cls-1{fill:none;stroke:#231f20;stroke-linecap:round;stroke-miterlimit:10;stroke-width:3px;}</style></defs><title>bird</title><g id="Layer_2" data-name="Layer 2"><g id="Layer_1-2" data-name="Layer 1"><path class="cls-1" d="M65.23,16.62C53.79,23.44,3.82,20.79,3.82,20.79s53.64,53.73,83.7,13.35l5.17-6.25c13.7-16.17-5.3-38.84-21.83-18-3.07,3.83-4.79,5.76-5.63,6.78"/><polyline class="cls-1" points="25.56 38.24 22.13 45.3 31.97 53.43 38.46 58.8"/><line class="cls-1" x1="34.53" y1="43.07" x2="31.97" y2="53.43"/><path class="cls-1" d="M3.82,20.79S36.41,41.35,54,34"/><path class="cls-1" d="M65.29,16.58C74,20.77,82.85,34.8,81,41.17"/><polyline class="cls-1" points="95.11 25.06 96.07 29.17 91.21 29.78"/><ellipse class="cls-1" cx="86.75" cy="16.96" rx="1.23" ry="1.24" transform="translate(18.39 73) rotate(-50.41)"/></g></g></svg>