<svg xmlns="http://www.w3.org/2000/svg" viewBox="0 0 130.35 152.33"><defs><style>.cls-1{fill:none;stroke:#231f20;stroke-linejoin:round;stroke-width:7px;}</style></defs><title>bonefire</title><g id="Layer_2" data-name="Layer 2"><g id="Layer_1-2" data-name="Layer 1"><path class="cls-1" d="M88.05,84.32C120.74,13,52,3.5,52,3.5s22.53,2.67-3,28.16c-17,17-10,39.75-6.49,51.69"/><path class="cls-1" d="M82.5,87.27c-1.65-12.77-6-29.87-17.55-31,2.75,11.9-3.89,25.06-10,34.05"/><rect class="cls-1" x="-0.78" y="98.07" width="133.45" height="22.47" rx="7.83" transform="translate(61.69 -18.28) rotate(29.19)"/><path class="cls-1" d="M66,121.49,18.19,146.83a7.82,7.82,0,0,1-10.58-3.24l-3.19-6A7.82,7.82,0,0,1,7.66,127l35.81-19"/><path class="cls-1" d="M66,96.05,111.7,71.77A7.83,7.83,0,0,1,122.29,75l3.19,6a7.82,7.82,0,0,1-3.24,10.58L88.59,109.47"/></g></g></svg>