<svg xmlns="http://www.w3.org/2000/svg" viewBox="0 0 212.38 224.42"><defs><style>.cls-1{fill:none;stroke:#231f20;stroke-linecap:round;stroke-miterlimit:10;stroke-width:9px;}</style></defs><title>Coffee_1</title><g id="Layer_2" data-name="Layer 2"><g id="Layer_1-2" data-name="Layer 1"><path class="cls-1" d="M182.71,93.54H4.5"/><path class="cls-1" d="M4.5,93.54c0,169,178.21,168,178.21,0"/><path class="cls-1" d="M181,124.24c46,.51,28.09,55.65-16.85,55.65"/><path class="cls-1" d="M85.34,4.5l-5.88,15a15,15,0,0,0,6.73,18.58h0a15,15,0,0,1,6.75,18.55L87.87,69.7"/><path class="cls-1" d="M45.34,18.82l-7.12,13c-3.32,6.1.17,13,8.16,16.16h0c8,3.15,11.48,10,8.18,16.13L48.41,75.51"/><path class="cls-1" d="M127.33,18.82l-7.13,13c-3.32,6.1.17,13,8.16,16.16h0c8,3.15,11.48,10,8.18,16.13l-6.15,11.36"/></g></g></svg>