<svg xmlns="http://www.w3.org/2000/svg" viewBox="0 0 66 324">
    <defs>
        <style>
            .cls-1 {
                fill: red
            }
        </style>
    </defs>
    <title>filled_cylinder</title>
    <g id="Layer_2" data-name="Layer 2">
        <g id="Layer_1-2" data-name="Layer 1">
            <path class="cls-1"
                d="M33,323.5A32.54,32.54,0,0,1,.5,291V33a32.5,32.5,0,0,1,65,0V291A32.54,32.54,0,0,1,33,323.5Z" />
            <path
                d="M33,1A32,32,0,0,1,65,33V291a32,32,0,0,1-64,0V33A32,32,0,0,1,33,1m0-1A33,33,0,0,0,0,33V291a33,33,0,0,0,66,0V33A33,33,0,0,0,33,0Z" />
        </g>
    </g>
</svg>