<svg xmlns="http://www.w3.org/2000/svg" viewBox="0 0 188.32 208.62"><defs><style>.cls-1,.cls-2{fill:none;stroke:#231f20;stroke-width:7px;}.cls-1{stroke-linecap:round;stroke-miterlimit:10;}.cls-2{stroke-linejoin:round;}</style></defs><title>fireplace</title><g id="Layer_2" data-name="Layer 2"><g id="Layer_1-2" data-name="Layer 1"><line class="cls-1" x1="3.5" y1="180.6" x2="184.82" y2="180.6"/><line class="cls-1" x1="3.5" y1="205.12" x2="184.82" y2="205.12"/><line class="cls-1" x1="3.5" y1="180.6" x2="3.5" y2="205.12"/><line class="cls-1" x1="184.82" y1="180.6" x2="184.82" y2="205.12"/><line class="cls-1" x1="3.5" y1="3.5" x2="184.82" y2="3.5"/><line class="cls-1" x1="3.5" y1="28.02" x2="184.82" y2="28.02"/><line class="cls-1" x1="3.5" y1="3.5" x2="3.5" y2="28.02"/><line class="cls-1" x1="184.82" y1="3.5" x2="184.82" y2="28.02"/><line class="cls-1" x1="29.12" y1="28.02" x2="30.48" y2="179.16"/><line class="cls-1" x1="10" y1="29.53" x2="11.36" y2="180.67"/><line class="cls-1" x1="158.23" y1="28.02" x2="159.6" y2="179.16"/><line class="cls-1" x1="177.98" y1="28.02" x2="179.34" y2="179.16"/><path class="cls-2" d="M117.77,179.91C179.46,80.53,80.08,72.19,80.08,72.19s25.35,3-3.33,31.69c-41.69,41.68,0,76,0,76Z"/><path class="cls-2" d="M79.55,180.23h37.11s0-43.09-18.55-44.94C102.86,155.86,79.55,180.23,79.55,180.23Z"/><path class="cls-2" d="M30.11,107.37c0-88.85,129.12-89.88,129.12,0"/><line class="cls-2" x1="10.13" y1="44.09" x2="29.8" y2="44.09"/><line class="cls-2" x1="10.13" y1="56.61" x2="29.8" y2="56.61"/><line class="cls-2" x1="10.13" y1="69.12" x2="29.8" y2="69.12"/><line class="cls-2" x1="10.13" y1="81.63" x2="29.8" y2="81.63"/><line class="cls-2" x1="10.13" y1="94.15" x2="29.8" y2="94.15"/><line class="cls-2" x1="10.13" y1="106.66" x2="29.8" y2="106.66"/><line class="cls-2" x1="10.13" y1="119.17" x2="29.8" y2="119.17"/><line class="cls-2" x1="10.13" y1="131.69" x2="29.8" y2="131.69"/><line class="cls-2" x1="10.13" y1="144.2" x2="29.8" y2="144.2"/><line class="cls-2" x1="10.13" y1="156.72" x2="29.8" y2="156.72"/><line class="cls-2" x1="10.13" y1="169.23" x2="29.8" y2="169.23"/><line class="cls-2" x1="159.23" y1="44.09" x2="178.9" y2="44.09"/><line class="cls-2" x1="159.23" y1="56.61" x2="178.9" y2="56.61"/><line class="cls-2" x1="159.23" y1="69.12" x2="178.9" y2="69.12"/><line class="cls-2" x1="159.23" y1="81.63" x2="178.9" y2="81.63"/><line class="cls-2" x1="159.23" y1="94.15" x2="178.9" y2="94.15"/><line class="cls-2" x1="159.23" y1="106.66" x2="178.9" y2="106.66"/><line class="cls-2" x1="159.23" y1="119.17" x2="178.9" y2="119.17"/><line class="cls-2" x1="159.23" y1="131.69" x2="178.9" y2="131.69"/><line class="cls-2" x1="159.23" y1="144.2" x2="178.9" y2="144.2"/><line class="cls-2" x1="159.23" y1="156.72" x2="178.9" y2="156.72"/><line class="cls-2" x1="159.23" y1="169.23" x2="178.9" y2="169.23"/><line class="cls-2" x1="19.96" y1="179.91" x2="19.96" y2="205.12"/><line class="cls-2" x1="39.09" y1="179.91" x2="39.09" y2="205.12"/><line class="cls-2" x1="58.22" y1="179.91" x2="58.22" y2="205.12"/><line class="cls-2" x1="77.35" y1="179.91" x2="77.35" y2="205.12"/><line class="cls-2" x1="96.48" y1="179.91" x2="96.48" y2="205.12"/><line class="cls-2" x1="115.61" y1="179.91" x2="115.61" y2="205.12"/><line class="cls-2" x1="134.74" y1="179.91" x2="134.74" y2="205.12"/><line class="cls-2" x1="153.86" y1="179.91" x2="153.86" y2="205.12"/><line class="cls-2" x1="172.99" y1="179.91" x2="172.99" y2="205.12"/></g></g></svg>