<svg xmlns="http://www.w3.org/2000/svg" viewBox="0 0 51.57 9.12"><defs><style>.cls-1{fill:#fff;}.cls-2{fill:#002bff;}</style></defs><title>Logo</title><g id="Layer_2" data-name="Layer 2"><g id="Layer_1-2" data-name="Layer 1"><path class="cls-1" d="M7,6.16a3,3,0,0,1-1,2.17,3.61,3.61,0,0,1-2.42.79A3.21,3.21,0,0,1,.94,8,4.49,4.49,0,0,1,0,5V4.46A5.13,5.13,0,0,1,.43,2.29,3.37,3.37,0,0,1,1.67.85,3.51,3.51,0,0,1,3.54.35a3.5,3.5,0,0,1,2.38.79A3.25,3.25,0,0,1,7,3.36H5.21a1.75,1.75,0,0,0-.46-1.19,1.7,1.7,0,0,0-1.21-.38,1.49,1.49,0,0,0-1.31.63,3.56,3.56,0,0,0-.45,2V5A3.76,3.76,0,0,0,2.2,7a1.46,1.46,0,0,0,1.32.64,1.75,1.75,0,0,0,1.22-.37A1.72,1.72,0,0,0,5.2,6.16Z"/><path class="cls-1" d="M7.73,5.77A3.77,3.77,0,0,1,8.1,4.09,2.67,2.67,0,0,1,9.14,3a3.08,3.08,0,0,1,1.59-.41,2.86,2.86,0,0,1,2.09.79,3.13,3.13,0,0,1,.91,2.13v.43a3.34,3.34,0,0,1-.81,2.35,2.88,2.88,0,0,1-2.19.88,2.88,2.88,0,0,1-2.19-.88,3.4,3.4,0,0,1-.82-2.39Zm1.7.12a2.32,2.32,0,0,0,.34,1.38,1.11,1.11,0,0,0,1,.48,1.13,1.13,0,0,0,1-.47,2.61,2.61,0,0,0,.35-1.51A2.33,2.33,0,0,0,11.7,4.4a1.11,1.11,0,0,0-1-.49,1.09,1.09,0,0,0-1,.48A2.62,2.62,0,0,0,9.43,5.89Z"/><path class="cls-1" d="M14.52,5.77a3.77,3.77,0,0,1,.36-1.68,2.69,2.69,0,0,1,1-1.14,3,3,0,0,1,1.58-.41,2.87,2.87,0,0,1,2.1.79,3.12,3.12,0,0,1,.9,2.13l0,.43a3.34,3.34,0,0,1-.82,2.35,2.85,2.85,0,0,1-2.18.88,2.85,2.85,0,0,1-2.19-.88,3.35,3.35,0,0,1-.82-2.39Zm1.69.12a2.4,2.4,0,0,0,.34,1.38,1.23,1.23,0,0,0,1.94,0,2.61,2.61,0,0,0,.34-1.51,2.33,2.33,0,0,0-.34-1.37,1.21,1.21,0,0,0-1.94,0A2.7,2.7,0,0,0,16.21,5.89Z"/><path class="cls-1" d="M23.36,9h-1.7V0h1.7Z"/><path class="cls-2" d="M31.78,9H30V5.34H26.59V9H24.83V.47h1.76V3.93H30V.47h1.76Z"/><path class="cls-2" d="M36.12,9.12a3.11,3.11,0,0,1-2.27-.86A3,3,0,0,1,33,6V5.82a3.77,3.77,0,0,1,.37-1.71,2.75,2.75,0,0,1,1-1.16,2.93,2.93,0,0,1,1.54-.41,2.66,2.66,0,0,1,2,.82,3.35,3.35,0,0,1,.75,2.33v.69h-4a1.59,1.59,0,0,0,.49,1,1.51,1.51,0,0,0,1,.37A1.82,1.82,0,0,0,37.76,7l.83.93a2.62,2.62,0,0,1-1,.85A3.37,3.37,0,0,1,36.12,9.12Zm-.2-5.21a1,1,0,0,0-.81.34,1.7,1.7,0,0,0-.4,1h2.35V5.09a1.27,1.27,0,0,0-.3-.87A1.1,1.1,0,0,0,35.92,3.91Z"/><path class="cls-2" d="M43.36,9a1.93,1.93,0,0,1-.17-.57,2,2,0,0,1-1.6.69,2.23,2.23,0,0,1-1.54-.54,1.73,1.73,0,0,1-.62-1.36,1.8,1.8,0,0,1,.75-1.55,3.66,3.66,0,0,1,2.16-.54h.78V4.76a1.05,1.05,0,0,0-.23-.7.86.86,0,0,0-.71-.26,1,1,0,0,0-.67.2.71.71,0,0,0-.24.56h-1.7a1.78,1.78,0,0,1,.34-1,2.29,2.29,0,0,1,1-.73,3.41,3.41,0,0,1,1.39-.27,2.78,2.78,0,0,1,1.86.59,2.07,2.07,0,0,1,.69,1.66V7.54a3,3,0,0,0,.25,1.36V9ZM42,7.82a1.46,1.46,0,0,0,.69-.16,1.2,1.2,0,0,0,.47-.45V6.12h-.63c-.85,0-1.3.29-1.36.88v.1a.67.67,0,0,0,.22.52A.9.9,0,0,0,42,7.82Z"/><path class="cls-2" d="M45.86,5.78a3.84,3.84,0,0,1,.66-2.36,2.17,2.17,0,0,1,1.82-.88,1.94,1.94,0,0,1,1.53.69V0h1.7V9H50L50,8.33a2,2,0,0,1-1.63.79,2.17,2.17,0,0,1-1.8-.88A4,4,0,0,1,45.86,5.78Zm1.69.13a2.5,2.5,0,0,0,.31,1.37,1,1,0,0,0,.9.47,1.14,1.14,0,0,0,1.11-.66V4.58a1.12,1.12,0,0,0-1.1-.66C48,3.92,47.55,4.58,47.55,5.91Z"/></g></g></svg>