<svg xmlns="http://www.w3.org/2000/svg" viewBox="0 0 130.11 191.76">
    <defs>
        <style>
            .cls-1 {
                fill: none;
                stroke: #231f20;
                stroke-linecap: round;
                stroke-miterlimit: 10;
                stroke-width: 3px;
            }
        </style>
    </defs>
    <title>owl</title>
    <g id="Layer_2" data-name="Layer 2">
        <g id="Layer_1-2" data-name="Layer 1">
            <circle class="cls-1" cx="65.44" cy="64.9" r="55.66" />
            <ellipse class="cls-1" cx="92.73" cy="62.46" rx="27.31" ry="27.47" />
            <ellipse class="cls-1" cx="38.13" cy="62.46" rx="27.31" ry="27.47" />
            <path class="cls-1" d="M121.1,64.9V190.2S9.78,186.18,9.78,64.9" />
            <path class="cls-1" d="M51.25,70.35c-1.57,4.89-6.85,8.49-13.12,8.49S26.59,75.25,25,70.36" />
            <path class="cls-1" d="M105.86,71.6c-1.58,4.9-6.86,8.49-13.13,8.49S81.19,76.5,79.61,71.62" />
            <path class="cls-1" d="M1.5,1.5A63.55,63.55,0,0,1,65.05,65.05" />
            <path class="cls-1" d="M65.05,65.65A63.56,63.56,0,0,1,128.61,2.1" />
            <polyline class="cls-1" points="58.43 80.83 66.11 92.71 72.43 80.83" />
            <path class="cls-1" d="M89.05,115.32s-2.68,56.31,32.05,58" />
        </g>
    </g>
</svg>