<svg xmlns="http://www.w3.org/2000/svg" viewBox="0 0 300.37 322.76">
    <defs>
        <style>
            .cls-1 {
                fill: black;
                stroke: #000;
                stroke-miterlimit: 10;
            }
            .hour_hand {
                fill: black;
                color: #333;

            }
            .Clock_mid {
                fill: black;
            }
            .gear {
                fill: black;
            }
        </style>
    </defs>
    <title>Productivity</title>
            <!-- hour -->
                <path class="hour_hand"
                    d="M137.5,80a2,2,0,0,1,2,2v54.13a2,2,0,1,1-4,0V82a2,2,0,0,1,2-2m0-1a3,3,0,0,0-3,3v54.13a3,3,0,1,0,6,0V82a3,3,0,0,0-3-3Z" />
            
                <!-- minutes -->
                <path class="clock_hand"
                    d="M223.48,140.08a1,1,0,0,1,1,1v2a1,1,0,0,1-1,1h-81a1,1,0,0,1-1-1v-2a1,1,0,0,1,1-1h81m0-1h-81a2,2,0,0,0-2,2v2a2,2,0,0,0,2,2h81a2,2,0,0,0,2-2v-2a2,2,0,0,0-2-2Z" />
           
            <!-- Clock_mid -->
                <path class="clock_mid"
                d="M137.5,137.08a5,5,0,1,1-5,5,5,5,0,0,1,5-5m0-1a6,6,0,1,0,6,6,6,6,0,0,0-6-6Z" />
           
             <!-- gear -->
                <path class="gear"
                    d="M242,186.77h0a2.76,2.76,0,0,1,.75.1L255.14,190a3,3,0,0,1,2.17,3.65l-3.13,12.27-.19.82.74.36A52.13,52.13,0,0,1,271,219.32l.32.34h.73l.23-.14L283,213.16a3.06,3.06,0,0,1,1.53-.42,3,3,0,0,1,2.58,1.47l6.51,11a3,3,0,0,1-1.05,4.11l-10.68,6.34-.72.45.28.77a52.09,52.09,0,0,1,3,20.48l0,.84.79.21,11.91,3a3,3,0,0,1,2.16,3.65l-3.15,12.36a3,3,0,0,1-2.9,2.26,3.2,3.2,0,0,1-.75-.09l-11.91-3-.12,0h-.78l-.27.57a52,52,0,0,1-12.27,16.42l-.61.58.41.7,6.27,10.55a3,3,0,0,1,.32,2.27,3,3,0,0,1-1.37,1.84l-11,6.51a3,3,0,0,1-1.53.42,3,3,0,0,1-2.58-1.47l-6.24-10.51-.31-.5h-.76l-.16.06A52.17,52.17,0,0,1,232,307c-.92,0-1.85,0-2.76-.07h-.06l-.8,0-.19.75-3,11.8a3,3,0,0,1-2.9,2.25,3.2,3.2,0,0,1-.75-.09l-12.36-3.15a3,3,0,0,1-1.83-1.38,3,3,0,0,1-.33-2.27l3-11.75.19-.82-.75-.35a52.18,52.18,0,0,1-16.54-12.33l-.32-.34h-.73l-.24.14-10.71,6.36a3,3,0,0,1-4.11-1l-6.51-11a3,3,0,0,1,1.05-4.12L182,273.31l.72-.45-.28-.77a52,52,0,0,1-3-20.34l0-.84-.79-.2-12.27-3.13a3,3,0,0,1-2.17-3.65l3.15-12.36a3,3,0,0,1,2.91-2.26,2.64,2.64,0,0,1,.74.1l12.22,3.11.13,0h.12l.66,0,.27-.57a52.06,52.06,0,0,1,12.44-16.65l.62-.57-.42-.71L191,203.66a3,3,0,0,1,1-4.11l11-6.51a2.94,2.94,0,0,1,1.52-.43,3,3,0,0,1,2.58,1.47l6.2,10.38.31.5h.75l.16-.06a52.17,52.17,0,0,1,17.35-3c1,0,2,0,3,.09H235l.8,0,.19-.75L239.14,189a3,3,0,0,1,2.9-2.26m-27.49,98.62v0a35.83,35.83,0,0,0,7.08,3l.1,0,.4.12.11,0h.06l.77.21a35.56,35.56,0,0,0,43.28-25.69l.18-.73,0-.09,0-.13.09-.42,0-.09a35.36,35.36,0,0,0,.73-7.8l.07,0-.07-1.36a35.54,35.54,0,0,0-28.91-33.16,34.81,34.81,0,0,0-6.6-.63A35.91,35.91,0,0,0,198,243.43a35.51,35.51,0,0,0,15.4,41.29l1.16.67M242,185.77a4,4,0,0,0-3.87,3L235.05,201l0,0h0q-1.54-.09-3.09-.09a53.1,53.1,0,0,0-17.68,3h0L208,193.57a4,4,0,0,0-5.47-1.39l-11,6.51a4,4,0,0,0-1.4,5.48l6.12,10.38s0,0,0,0a53.09,53.09,0,0,0-12.68,17l0,0h0l-12.22-3.11a3.74,3.74,0,0,0-1-.13,4,4,0,0,0-3.87,3l-3.16,12.36a4,4,0,0,0,2.89,4.87l12.27,3.13,0,0a53.26,53.26,0,0,0,3,20.73,0,0,0,0,1,0,0l-10.68,6.33a4,4,0,0,0-1.4,5.49l6.51,11a4,4,0,0,0,5.48,1.4l10.71-6.36h0A53.23,53.23,0,0,0,209,302.85s0,0,0,0l-3,11.74a4,4,0,0,0,2.89,4.87l12.35,3.15a4.34,4.34,0,0,0,1,.12,4,4,0,0,0,3.87-3l3-11.79,0,0h0c.94.05,1.88.07,2.82.07a53.36,53.36,0,0,0,17.91-3.1h0l6.24,10.51a4,4,0,0,0,5.48,1.4l11-6.51a4,4,0,0,0,1.4-5.48l-6.27-10.55a0,0,0,0,1,0,0,53.2,53.2,0,0,0,12.5-16.73h0l11.9,3a3.87,3.87,0,0,0,1,.13,4,4,0,0,0,3.87-3l3.15-12.36a4,4,0,0,0-2.89-4.87l-11.9-3,0,0a53.16,53.16,0,0,0-3-20.86s0,0,0,0l10.68-6.34a4,4,0,0,0,1.4-5.48l-6.51-11a4,4,0,0,0-5.48-1.4l-10.72,6.36h0a53.35,53.35,0,0,0-16.6-12.45s0,0,0,0l3.13-12.27a4,4,0,0,0-2.89-4.87L243,185.9a3.74,3.74,0,0,0-1-.13Zm-28.13,98.1a34.6,34.6,0,0,1,18-64.16,34.09,34.09,0,0,1,6.41.61,34.61,34.61,0,0,1,28.1,32.23h0a34.51,34.51,0,0,1-.67,8.9c0,.16-.07.33-.11.49a1.74,1.74,0,0,1-.05.22c-.05.23-.11.47-.17.71a34.56,34.56,0,0,1-42.07,25l-.74-.2-.16,0-.5-.15a34.07,34.07,0,0,1-8-3.6v0Z" 
                    />
                
           
            <!-- clock -->
            <path id="Clock" class="cls-1"
                d="M161.86,281.92a138.94,138.94,0,0,1-26.76,2.14C61,282.78.85,221.9.5,147.74A136.54,136.54,0,0,1,39.56,51.3L21.55,26,57.22.7,74.66,25.31a137.21,137.21,0,0,1,129.07,1.82L220.84,2.37l35.14,26L237.34,53.28a137.13,137.13,0,0,1,30.74,135.33c-11.67-3-21.58-6.53-35.31-9.5a101.21,101.21,0,0,0,5.31-35.28C236.65,89.72,192.15,46,138,45.46A101.13,101.13,0,0,0,35.88,146.84C36,202.31,81.52,247.69,137,247.69a102.12,102.12,0,0,0,20-2Z" />
  
</svg>