<svg xmlns="http://www.w3.org/2000/svg" xmlns:xlink="http://www.w3.org/1999/xlink" viewBox="0 0 239.02 204.13">
    <defs>
        <style>
            .cls-1,
            .cls-2 {
                fill: none;
                stroke: #231f20;
                stroke-miterlimit: 10;
            }

            .cls-1 {
                stroke-linecap: round;
                stroke-width: 9px;
            }

            .cls-2 {
                stroke-width: 11px;
            }
        </style>
        <symbol id="ThunderStorm" data-name="ThunderStorm" viewBox="0 0 239.01 204.13">
            <path class="cls-1"
                d="M112.17,138.64c-1.55,4.82-2.55,10.82-4.55,16.82,7,5,14,7,21,12-3,11-5,21-8.17,32.17" />
            <g id="Cloud">
                <path class="cls-2"
                    d="M190.67,45A51.13,51.13,0,0,0,92,41.53a27.91,27.91,0,0,0-48.5,18.84c0,.93,0,1.85.13,2.76a34.32,34.32,0,1,0-4.31,68.42v0H190.24A43.28,43.28,0,0,0,190.67,45Z" />
            </g>
        </symbol>
    </defs>
    <title>ThunderStorm</title>
    <g id="Layer_2" data-name="Layer 2">
        <g id="Layer_1-2" data-name="Layer 1">
            <use width="239.02" height="204.13" xlink:href="#ThunderStorm" />
        </g>
    </g>
</svg>