<svg xmlns="http://www.w3.org/2000/svg" viewBox="0 0 143.79 78.31"><defs><style>.cls-1{fill:none;stroke:#231f20;stroke-linecap:round;stroke-linejoin:round;stroke-width:7px;}</style></defs><title>waves</title><g id="Layer_2" data-name="Layer 2"><g id="Layer_1-2" data-name="Layer 1"><path class="cls-1" d="M3.5,3.5c4.74,18.38,40,17.87,45.6,0"/><path class="cls-1" d="M49.1,3.5c4.74,18.38,40,17.87,45.59,0"/><path class="cls-1" d="M94.69,3.5c4.74,18.38,40,17.87,45.6,0"/><path class="cls-1" d="M3.5,32.36c4.74,18.38,40,17.87,45.6,0"/><path class="cls-1" d="M49.1,32.36c4.74,18.38,40,17.87,45.59,0"/><path class="cls-1" d="M94.69,32.36c4.74,18.38,40,17.87,45.6,0"/><path class="cls-1" d="M3.5,61.22c4.74,18.38,40,17.87,45.6,0"/><path class="cls-1" d="M49.1,61.22c4.74,18.38,40,17.87,45.59,0"/><path class="cls-1" d="M94.69,61.22c4.74,18.38,40,17.87,45.6,0"/></g></g></svg>